<svg version="1.1" id="Layer_1" xmlns="http://www.w3.org/2000/svg" xmlns:xlink="http://www.w3.org/1999/xlink" x="0px" y="0px" width="100%" viewBox="0 0 1024 1024" enable-background="new 0 0 1024 1024" xml:space="preserve">
<path fill="#FFFFFF" opacity="1.000000" stroke="none" d="

z"></path>
<path fill="#020406" opacity="1.000000" stroke="none" d="
M503.844360,889.870667 
	C500.710419,888.504272 497.407623,887.429077 494.469391,885.725159 
	C471.706360,872.524414 448.821564,859.517029 426.367126,845.806702 
	C411.513397,836.737183 397.308472,826.605103 382.337036,816.609131 
	C375.888184,811.451843 369.964630,806.571350 363.931396,801.830444 
	C354.134613,794.132080 344.051331,786.781433 334.504120,778.788208 
	C328.292603,773.587708 322.833069,767.491699 317.007507,761.826782 
	C310.698914,755.692261 304.167297,749.773438 298.090240,743.418823 
	C293.444061,738.560364 289.359406,733.165527 285.015289,728.017456 
	C281.108398,723.387451 277.054443,718.874207 273.305664,714.119995 
	C267.810028,707.150330 262.528564,700.011719 257.155823,692.945129 
	C253.197739,686.546265 249.186279,680.179626 245.291000,673.742798 
	C229.672897,647.934204 216.743164,620.880310 205.994095,592.650085 
	C195.418564,564.875610 187.357269,536.453979 181.288422,507.449219 
	C177.470200,489.200897 174.251968,470.813171 171.293335,452.403015 
	C168.592850,435.599091 166.272125,418.717468 164.405548,401.801514 
	C162.871185,387.896393 162.249008,373.890686 161.221619,359.929626 
	C160.870728,355.161652 160.516922,350.393921 160.426743,344.840942 
	C160.495102,337.442871 160.151413,330.830292 160.134445,324.216888 
	C160.076904,301.784424 160.134903,279.351624 160.148773,256.918976 
	C161.602203,249.959335 166.206711,245.909393 172.773026,244.311554 
	C184.745163,241.398285 196.856064,239.055725 208.829742,236.148331 
	C226.176941,231.936172 243.607040,227.954834 260.719818,222.917191 
	C280.216675,217.177750 299.714478,211.187714 318.648163,203.851776 
	C343.379517,194.269562 367.633148,183.430573 391.909210,172.717377 
	C396.636444,170.631226 401.402649,168.454437 406.018158,166.057037 
	C417.515686,160.085007 429.108612,154.275696 440.400360,147.933105 
	C460.118774,136.857239 479.631775,125.416046 499.258972,114.177032 
	C500.788940,113.300934 502.538940,112.809105 504.843567,112.374161 
	C510.048370,112.431099 514.596313,112.252541 519.144226,112.073982 
	C528.219849,117.057419 537.359863,121.927544 546.359497,127.044525 
	C579.444031,145.855545 612.672668,164.442307 647.480774,179.884140 
	C670.003174,189.875687 692.727844,199.666183 716.029053,207.582764 
	C745.071045,217.449738 774.694336,225.676773 804.277100,233.850281 
	C818.732300,237.844147 833.628784,240.298981 848.390930,243.106293 
	C861.027771,245.509445 866.744507,252.636139 866.774780,265.025787 
	C866.817444,282.519928 867.196838,300.032776 866.537842,317.503876 
	C865.823853,336.432739 864.123413,355.325745 862.775513,374.228851 
	C861.886475,386.696899 861.083069,399.177612 859.829895,411.611176 
	C858.696960,422.851318 857.158752,434.057739 855.517578,445.237640 
	C853.837158,456.684448 851.997803,468.114960 849.891418,479.490265 
	C847.701538,491.316101 845.726135,503.235840 842.565125,514.816528 
	C835.712769,539.921265 828.747803,565.026428 820.679138,589.756287 
	C815.885620,604.448059 809.479492,618.703247 802.753418,632.650757 
	C795.443481,647.809265 787.047546,662.453430 778.861511,677.175232 
	C775.953796,682.404663 772.272095,687.203674 768.617188,692.669800 
	C763.947144,698.436401 759.455322,703.619629 755.309082,709.065918 
	C752.250244,713.083923 750.009949,717.758301 746.752258,721.584473 

	C715.055725,754.886780 708.254211,762.090210 701.154724,768.987183 
	C697.571533,772.468201 693.361572,775.294556 689.624390,778.629150 
	C686.411438,781.496033 683.709656,784.969299 680.353088,787.634460 
	C673.704590,792.913513 666.688049,797.726257 659.959595,802.908386 
	C654.140015,807.390564 648.508728,812.117310 642.794189,816.735962 
	C632.051086,824.135681 621.585571,831.983887 610.507446,838.842529 
	C586.914917,853.449280 563.043823,867.608582 539.195129,881.797119 
	C533.584045,885.135437 527.608887,887.861938 521.145874,890.618286 
	C516.091248,890.744080 511.692078,891.121399 507.292877,891.498779 
	C507.292877,891.498779 507.185089,891.327271 506.938629,890.925537 
	C505.742889,890.306030 504.793640,890.088379 503.844360,889.870667 
M564.819702,818.127197 
	C570.454651,814.719116 576.105713,811.337280 581.719788,807.895142 
	C586.924194,804.703979 592.262451,801.693298 597.236389,798.171753 
	C608.856812,789.944336 620.615112,781.860229 631.732605,772.985229 
	C649.866150,758.509338 667.851868,743.810608 685.255066,728.474182 
	C693.296021,721.388184 700.013794,712.743164 706.973145,704.502258 
	C715.227844,694.727478 723.525208,684.936279 731.008423,674.577515 
	C738.086060,664.780029 744.607727,654.503601 750.510132,643.954468 
	C757.438904,631.570862 763.435608,618.665771 769.985168,605.235229 
	C771.673523,601.400146 773.662415,597.666748 775.000183,593.713013 
	C782.158142,572.558594 789.534546,551.465637 796.057556,530.113708 
	C799.769348,517.963806 802.301575,505.421661 804.814270,492.945190 
	C808.221008,476.029938 811.464539,459.064636 814.094055,442.015289 
	C816.342957,427.434113 817.810669,412.722626 819.288513,398.035034 
	C820.786804,383.144196 822.046692,368.223999 823.081970,353.293823 
	C823.804382,342.875793 824.168762,332.422485 824.337952,321.979187 
	C824.546997,309.078430 824.387939,296.171692 824.387939,282.709167 
	C815.175415,280.684662 805.247742,278.916107 795.552734,276.288788 
	C773.572876,270.332397 751.468689,264.677521 729.861267,257.547638 
	C706.953064,249.988495 684.374084,241.327133 662.004089,232.275360 
	C644.612183,225.237900 627.651367,217.093445 610.703918,209.011353 
	C595.716980,201.864151 580.837402,194.448685 566.229553,186.560577 
	C549.047791,177.282593 532.239136,167.315033 515.168457,157.826843 
	C513.783325,157.056992 511.446259,157.187271 509.867950,157.764450 
	C507.375549,158.675934 505.150452,160.319260 502.813721,161.655487 
	C489.589783,169.217377 476.490997,177.009720 463.106964,184.276718 
	C450.175476,191.298065 436.981873,197.841064 423.843811,204.476181 
	C413.467041,209.716721 403.182495,215.198364 392.532776,219.827011 
	C373.599976,228.055740 354.600403,236.192703 335.295715,243.486526 
	C316.011475,250.772598 296.528259,257.695770 276.749115,263.464020 
	C255.227554,269.740417 233.253967,274.461121 211.502991,279.961060 
	C206.611969,281.197784 200.862869,281.504486 199.793259,287.570312 
	C199.793259,286.841217 199.793259,286.112152 199.793259,285.383057 
	C199.175049,294.103546 198.976151,302.816803 199.247223,311.515411 
	C199.418686,317.017609 200.291153,322.497925 200.971542,328.885803 
	C201.548004,339.429443 201.876068,349.993896 202.756073,360.512146 
	C204.277695,378.699432 205.934341,396.880829 207.925598,415.021759 
	C209.622147,430.477722 211.234039,445.989441 214.029343,461.266846 
	C217.727829,481.480499 221.932785,501.646881 227.054855,521.541443 
	C231.895874,540.344543 237.977554,558.843201 243.958954,577.331665 
	C247.206100,587.368530 251.381393,597.105225 255.171143,607.598755 
	C255.983063,609.028320 256.849609,610.429932 257.598297,611.891846 
	C263.746613,623.897217 269.395813,636.190674 276.155212,647.840454 
	C281.684540,657.370117 288.490570,666.163574 294.808044,675.229431 
	C297.955841,679.746582 301.050537,684.332458 304.575897,688.546997 
	C309.245728,694.129883 314.316559,699.377197 319.209747,704.773438 
	C326.888824,713.242004 334.301331,721.973450 342.326660,730.099854 
	C348.274414,736.122498 354.992249,741.388672 361.410400,746.941711 
	C369.824219,754.221375 377.938690,761.905029 386.802216,768.592896 
	C398.867126,777.696411 411.365784,786.252625 423.961792,794.616821 
	C435.731262,802.432251 447.870697,809.690613 460.168488,817.853699 
	C462.150177,818.769287 464.219482,819.533752 466.099609,820.624390 
	C481.068512,829.307434 495.976074,838.096741 510.993805,846.693970 
	C512.193054,847.380493 514.438904,847.493530 515.587830,846.824585 
	C531.813843,837.376831 547.933960,827.747314 564.819702,818.127197 


z"></path>
<path fill="#010101" opacity="1.000000" stroke="none" d="
M659.925842,501.674011 
	C659.983337,502.446808 659.904480,502.882202 659.932373,504.106934 
	C660.064941,538.298645 660.090698,571.700989 660.116516,605.103394 
	C658.661194,611.784363 657.952393,618.748169 655.556519,625.072876 
	C652.731873,632.529541 649.134216,639.906494 644.622131,646.457336 
	C638.881958,654.791443 630.733154,660.952637 621.669678,665.500549 
	C613.308472,669.696106 604.396851,672.395508 594.074219,673.014832 
	C582.778198,672.995544 572.376465,672.995972 561.751709,672.630981 
	C536.304321,672.175659 511.079987,672.080200 485.855560,672.051208 
	C485.490051,672.050781 485.123566,672.881104 484.735748,673.412109 
	C484.713989,673.500488 484.827484,673.642822 484.388428,673.658386 
	C481.279999,673.735596 478.610626,673.797241 475.538544,673.776001 
	C473.771576,673.753296 472.407349,673.813416 470.638336,673.794128 
	C469.138947,673.765808 468.044373,673.816833 466.758148,673.770691 
	C466.566528,673.673584 466.142944,673.601685 465.833527,673.413269 
	C463.635559,673.354065 461.746979,673.483215 459.529633,673.629761 
	C458.542572,673.640747 457.884338,673.634399 457.161682,673.317383 
	C456.328247,673.221375 455.559204,673.436096 454.393372,673.664185 
	C452.408600,673.662781 450.820618,673.648071 449.189087,673.357544 
	C448.855133,672.851929 448.564758,672.622070 448.274384,672.392212 
	C448.103943,672.803955 447.933502,673.215759 447.315369,673.634644 
	C442.873383,673.681946 438.879089,673.722107 434.884796,673.762207 
	C433.650421,673.597107 432.416046,673.432007 430.815674,673.186951 
	C429.964233,673.058411 429.478790,673.009705 428.993317,672.960999 
	C428.283722,672.906128 427.574158,672.851257 426.288269,672.439209 
	C424.470001,672.035278 423.227997,671.988586 421.985992,671.941895 
	C421.985992,671.941895 421.729797,671.771362 421.373291,671.488281 
	C419.345734,670.801758 417.674622,670.398376 416.003540,669.994995 
	C415.002655,669.592651 414.001740,669.190308 412.525330,668.593994 
	C411.708893,668.308716 411.367950,668.217468 411.026978,668.126221 
	C411.026978,668.126221 410.609161,667.989624 410.282043,667.703491 
	C409.639862,667.284363 409.324799,667.151367 409.009766,667.018433 
	C409.009766,667.018433 408.616089,666.918274 408.301819,666.653809 
	C407.663452,666.274231 407.339386,666.159119 407.015320,666.043945 
	C406.621735,665.735291 406.228180,665.426636 405.400513,664.724609 
	C404.322601,664.171570 403.678772,664.011841 403.034973,663.852051 
	C403.034973,663.852051 403.035706,663.954102 402.983582,663.706726 
	C402.630737,663.355652 402.329987,663.251953 402.029266,663.148254 
	C389.451874,656.273926 380.232452,646.093201 374.826385,633.021118 
	C371.655426,625.353577 370.353790,616.912964 368.108337,608.017212 
	C367.772614,605.756775 367.539856,604.299377 367.307068,602.841919 
	C367.282257,602.440247 367.257446,602.038574 367.175781,601.340332 
	C367.248871,585.105774 367.459839,569.167969 367.485748,553.229858 
	C367.511475,537.429810 367.350769,521.629456 367.203125,505.412598 
	C367.134430,504.996033 367.262970,504.653870 367.302063,504.315369 
	C367.257996,503.598633 367.174866,503.220367 367.091705,502.842102 
	C367.091705,502.842102 367.229218,502.471771 367.429504,502.053528 
	C367.778625,500.079773 367.927490,498.524323 368.076355,496.968842 
	C370.409607,489.187744 372.742859,481.406677 375.117310,473.338104 
	C375.487366,473.036835 375.747223,472.895813 376.268616,472.325195 
	C380.562012,466.799011 383.914001,460.920227 388.638763,456.513214 
	C394.870392,450.700592 402.179352,446.042969 409.290405,440.908508 
	C409.740723,440.633606 409.925842,440.339050 410.069458,440.036224 
	C410.027985,440.027954 410.066406,440.103333 410.431030,439.941010 
	C410.922699,438.494354 411.049805,437.210022 411.265015,435.574707 
	C411.294952,434.507111 411.236755,433.790497 411.259338,432.606567 
	C411.286377,427.398071 411.232605,422.656860 411.274292,417.603668 
	C411.309113,416.865448 411.248474,416.439240 411.273804,415.552155 
	C411.295044,410.390106 411.230286,405.688904 411.267273,400.545258 
	C411.303619,397.093353 411.238220,394.083954 411.263184,390.623383 
	C411.273315,387.433655 411.193146,384.695068 411.168945,381.627472 
	C411.143738,380.862427 411.062531,380.426422 411.032867,379.745483 
	C411.046082,379.338196 411.007751,379.175781 411.081177,378.612732 
	C411.515991,377.144440 411.887054,376.088715 412.154327,375.007324 
	C413.802887,368.337311 415.428040,361.661530 417.061005,354.987671 
	C417.061005,354.987671 417.193359,354.683380 417.391693,354.370667 
	C417.688110,353.713715 417.786194,353.369446 417.884277,353.025177 
	C417.942993,352.591919 418.001678,352.158630 418.405823,351.218262 
	C419.911041,348.167480 421.070770,345.623840 422.230530,343.080261 
	C427.468262,335.940247 432.304779,328.452637 438.084930,321.782745 
	C441.926544,317.349823 446.900330,313.778534 451.748627,310.362762 
	C461.507111,303.487640 472.126526,298.240601 483.731171,295.186981 
	C487.504272,294.194122 491.289673,292.919769 495.137329,292.605591 
	C503.508362,291.922089 512.090332,290.557678 520.281555,291.684753 
	C533.298523,293.475861 546.139709,296.174408 558.258667,302.391724 
	C569.401855,308.108490 579.485229,314.871918 588.021851,323.789276 
	C592.825073,328.806793 596.513794,334.891266 600.866699,340.746948 
	C602.169800,344.022980 603.419861,347.011292 604.429443,350.078735 
	C606.693604,356.957733 609.231812,363.779327 610.955444,370.796936 
	C615.538452,389.455200 612.484375,408.498505 613.307556,427.354797 
	C613.387268,429.180450 613.642822,431.087036 613.250854,432.828705 
	C611.883789,438.903107 615.207153,442.096649 620.237976,443.528656 
	C628.527405,445.888245 634.003113,452.244293 640.310791,457.258942 
	C643.765747,460.005646 645.481140,464.855713 648.288513,468.521851 
	C652.478760,473.994049 654.802734,480.242798 656.476746,486.784637 
	C657.709656,491.602386 658.694275,496.483673 659.925842,501.674011 
M450.712891,392.343445 
	C450.712891,405.780609 450.712891,419.217743 450.712891,432.526550 
	C451.949890,432.867493 452.411652,433.105469 452.873871,433.106384 
	C492.178284,433.183929 531.482727,433.235352 570.787170,433.317291 
	C574.193481,433.324402 575.474792,431.773407 575.364380,428.387848 
	C574.926697,414.962891 574.546753,401.534454 574.328247,388.104370 
	C574.176086,378.755432 570.763000,370.241760 566.534790,362.383026 
	C560.252258,350.705872 550.633972,342.011597 538.661682,335.857483 
	C527.023315,329.875000 514.691345,328.451294 502.180450,330.385864 
	C487.146606,332.710541 474.930084,340.758759 465.075867,352.232422 
	C459.722504,358.465485 455.692841,365.531006 453.716522,373.604065 
	C452.386475,379.037109 451.186584,384.501984 449.474976,390.643005 
	C449.474976,404.386871 449.474976,418.130707 449.474976,431.874573 
	C449.660919,431.876617 449.846863,431.878632 450.032806,431.880676 
	C450.032806,418.513977 450.032806,405.147247 450.712891,392.343445 
M492.615936,554.125366 
	C493.538391,555.631348 495.221191,557.117310 495.261627,558.646606 
	C495.556366,569.792603 495.784515,580.954163 495.496338,592.096863 
	C495.306000,599.455688 499.190887,604.092773 504.843475,607.278137 
	C508.109406,609.118591 512.671692,610.954163 515.935547,610.090271 
	C527.702454,606.975952 531.970825,599.841736 532.525452,588.247620 
	C532.994568,578.443115 532.533325,568.596313 532.664124,558.770691 
	C532.680664,557.527527 533.537354,556.054932 534.443420,555.108704 
	C537.343201,552.080627 540.925171,549.591003 543.327759,546.237244 
	C545.314636,543.463806 545.867981,539.700195 547.291992,536.479492 
	C551.203857,527.632080 547.029968,519.989197 542.702393,513.168274 
	C539.859009,508.686646 534.645325,505.480530 530.028625,502.399200 
	C520.087891,495.764435 509.646423,496.013184 499.016083,501.073975 
	C492.823792,504.021881 487.868652,508.676361 484.399933,514.120300 
	C480.125732,520.828491 478.025574,528.317139 480.605591,536.908630 
	C482.741089,544.019836 486.775391,549.133667 492.615936,554.125366 




 

 

 




z"></path>
</svg>